<!--?xml version="1.0" encoding="utf-8"?-->
<!-- Generator: Adobe Illustrator 18.1.1, SVG Export Plug-In . SVG Version: 6.00 Build 0)  -->

<svg version="1.1" id="_x31_0" xmlns="http://www.w3.org/2000/svg" xmlns:xlink="http://www.w3.org/1999/xlink" x="0px" y="0px" viewBox="0 0 512 512" style="width: 256px; height: 256px; opacity: 1;" xml:space="preserve">
<style type="text/css">
	.st0{fill:#374149;}
</style>
<g>
	<path class="st0" d="M371.187,73.438h-230.37c-5.438,0-9.844,4.406-9.844,9.844v63.183v30.981v29.297v30.98v29.344v30.981v29.343
		v30.977v40.363v8.852v30.73v0.094l0,0v0.156h95.058h0.289l0,0h0.161v-30.98v-8.852v-27.305h58.839h0.199v27.305v8.852v30.98h95.508
		v-30.98v-8.852v-40.363V327.39v-29.343v-30.981v-29.344v-30.98v-29.297v-30.981V83.282
		C381.027,77.844,376.625,73.438,371.187,73.438z M345.621,117.695v28.77H166.379v-28.77H345.621z M345.621,177.446v29.297H166.379
		v-29.297h178.855H345.621z M345.621,237.722v29.344H166.379v-29.344H345.621z M166.379,327.39v-29.343h178.855h0.386v29.343
		H166.766H166.379z"></path>
	<path class="st0" d="M0,137.981v299.507v0.918l0,0v0.156h101.883v-94.531H30.156h-0.058v-24.918h71.406h0.218l0,0h0.161v-26.332
		H30.156h-0.058v-24.961h71.786v-26.336H30.156h-0.058v-24.918h71.406l0.218,0.004v-0.004h0.161v-26.332H30.098v-24.43h71.786
		v-37.664H9.84C4.406,128.141,0,132.547,0,137.981z"></path>
	<path class="st0" d="M502.16,128.141h-92.039v37.39v0.114l0,0v0.16h71.786v24.43h-71.786v26.094v0.078l0,0v0.16h71.727h0.058
		v24.918H410.5h-0.218l0,0h-0.161v26.094v0.078l0,0v0.165h71.786v24.961H410.5h-0.218l0,0h-0.161v26.094v0.078l0,0v0.16h71.727
		h0.058v24.918H410.5h-0.218l0,0h-0.161v94.086v0.289l0,0v0.156H512V137.981C512,132.547,507.598,128.141,502.16,128.141z"></path>
</g>
</svg>
